<svg xmlns="http://www.w3.org/2000/svg" xmlns:xlink="http://www.w3.org/1999/xlink" version="1.1" x="0px" y="0px" viewBox="0 0 90 112.5" style="enable-background:new 0 0 90 90;" xml:space="preserve"><g><path d="M89.4,59.4c0-1.6-0.7-4.5-1.5-6.6c-0.8-2.2-1.9-2.8-2.5-3.1c-0.6-0.3-2.1-0.2-8.8-0.7   c-6.7-0.5-11.3-3-14.3-4.6c-2.9-1.5-15.9-8.4-16.8-8.9c0,0-0.1,0-0.1-0.1c-0.3-0.2-1.8-1.3-3-2.3c-1.3-1.1-3.3-5.3-4.2-7   c-0.9-1.8-3.7-7.6-4.3-8.8c-0.5-1-1.3-0.7-1.5-0.6c0,0-0.1,0-0.1,0.1c-0.2,0.2-1.5,0.7-3.3,1.8c-2,1.2-4,3.7-4.4,4.2   c-0.4,0.5-1.2,2.4-1.6,4.3c-0.3,1.4,0.4,3.8,0.8,5c0.1,0.4-0.1,0.9-0.5,1c-0.4,0.1-1,0.3-1.9,0.6c0,0,0,0,0,0c-4.2,1.6-6-0.8-8.1-3   c-1.6-1.7-4.4-2-5.6-2c-0.4,0-0.7-0.3-0.8-0.7c0-0.3-0.1-0.6-0.1-1c-0.1-1-0.4-1-0.6-1.2c-0.3-0.2-1.1-0.5-1.7,0.3   s-0.7,3.6-0.7,4.3c0.1,0.7,0,5.1-0.2,6.9c-0.2,1.8-1.8,9.3-2,10.2c-0.2,0.9,0,7.1,0,7.1s0.2,3.9,0.3,7.9c0.1,4,1.7,4.3,2.3,4.7   c0.5,0.5,4.5,2,5.4,2.2c0.9,0.2,10.1,0.2,10.1,0.2s15.4-0.5,17.7-0.5c2.2,0.1,17,0.2,22.2,0c5.2-0.2,14-1.5,18.2-2.2   c4.2-0.8,9.2-2.9,9.2-2.9s2.2-1,2.5-2S89.4,61,89.4,59.4z M56.2,43.9c2.1,0.5,3.9,1.1,5.7,2.7c0.2,0.6,0.4,0.9-0.2,1.5   c-0.5,0.6-2.7,2.8-2.7,2.8l-5-2.3l0.2-3.8C54.3,44.9,54.1,43.4,56.2,43.9z M32.3,34.5l1.6-3.8c0,0,0.3-1.6,2.3-0.3   c2,1.3,3.5,2.5,4.8,4.9c0,0.7,0,1.1-0.7,1.5c-0.8,0.4-3.7,1.9-3.7,1.9c0,0.8-7.8,13.7-7.8,13.7l-17.1-2.9L32.3,34.5z M29.9,65.1   c0,0.5-0.2,0.4-0.9,0.6c-3,0.6-11.8,0-11.8,0c-0.7-0.3-0.8-1-0.8-1s0-0.6,0.4-1c0.4-0.4,2.3-0.2,2.8-0.2c0.4,0,7.7,0.5,9,0.7   C29.8,64.3,30,64.5,29.9,65.1z M87.6,55.2c-0.1,0.1-1.6,1.4-3.9,2.1c-2.3,0.7-4.6,1.4-5.8,1.6c-1.1,0.1-3.1,0.6-4,1.6l-0.7,0.7   c-0.1,0.1-0.3,0.1-0.4,0c-0.6-0.7-2.6-2.8-3.8-2.8c-1.2-0.1-3.2-0.5-6.1,0.4c-2.5,0.8-8.7,2.9-10,3.3c-0.1,0-0.3,0-0.3-0.1   c-0.4-0.8-1.8-3.5-3.4-4.2c-1.9-0.9-3.9-0.8-9,2.1c-0.1,0-1.7,1.2-1.8,1.2c-0.9,0.7-1.7,1.2-3.9,2.8c-0.2,0.2-0.5,0.2-0.7,0.2   C29.9,63,21,62.2,18.4,62.1C15.9,62,5.9,61.5,3.1,60.9c-0.3-0.1-0.5-0.3-0.7-0.6c-0.4-0.8-0.2-1.6-0.1-2.1c0.1-0.4,0.4-0.6,0.8-0.6   c0.3,0,0.6-0.1,0.9-0.1c0.2,0,0.5-0.2,0.6-0.4c1.5-2,2.8-1.8,4.4-1.8c8,0.2,27.1,3.6,29,3.9c0,0,0.1,0,0.1,0c0,0,0,0,0,0   c2-1.4,9.1-6.1,11.8-5.4c3.1,0.8,5,2.1,6.4,2.5c1.4,0.4,4.1,2,6.4,0.5c2.3-1.5,4.9-2.5,7.1-2.9c2.2-0.4,5.8-0.6,7.8-1.1   s5.4-1.9,6.1-2.2c0.8-0.4,1.8-0.3,2.6,0.7c0.7,1,1,1.5,1.2,2.3C87.7,54.5,87.7,55.1,87.6,55.2z"/><path d="M30.3,38.5l-12,8.6l9.9,1.7c0,0,4.5-7.5,4.5-8C32.7,40.4,30.3,38.5,30.3,38.5z"/></g><text x="0" y="105" fill="#000000" font-size="5px" font-weight="bold" font-family="'Helvetica Neue', Helvetica, Arial-Unicode, Arial, Sans-serif">Created by TS Graphics</text><text x="0" y="110" fill="#000000" font-size="5px" font-weight="bold" font-family="'Helvetica Neue', Helvetica, Arial-Unicode, Arial, Sans-serif">from the Noun Project</text></svg>