<?xml version="1.0" encoding="utf-8"?>
<!-- Generator: Adobe Illustrator 16.2.1, SVG Export Plug-In . SVG Version: 6.00 Build 0)  -->
<!DOCTYPE svg PUBLIC "-//W3C//DTD SVG 1.1//EN" "http://www.w3.org/Graphics/SVG/1.1/DTD/svg11.dtd">
<svg version="1.1" id="Calque_1" xmlns="http://www.w3.org/2000/svg" xmlns:xlink="http://www.w3.org/1999/xlink" x="0px" y="0px"
	 width="560px" height="960px" viewBox="0 0 560 960" enable-background="new 0 0 560 960" xml:space="preserve">
<g>
	<path fill-rule="evenodd" clip-rule="evenodd" d="M485.413,481.575c0.424,111.538-91.412,203.955-203.03,204.314
		c-113.734,0.367-205.839-90.58-206.221-203.629c-0.383-113.44,90.709-205.073,204.274-205.486
		C393.582,276.363,484.98,367.683,485.413,481.575z M208.313,524.043c2.598,0.255,4.283,0.223,5.866,0.607
		c14.996,3.653,29.935,7.553,44.973,11.018c9.346,2.152,18.792,4.94,28.268,5.267c40.714,1.403,80.636-4.972,120.098-14.352
		c5.997-1.426,11.989-4.253,17.092-7.737c7.759-5.299,8.86-14.025,4.061-22.113c-3.447-5.809-8.591-8.498-15.244-8.864
		c-16.962-0.934-33.906-2.3-50.879-2.896c-16.429-0.578-31.064-4.886-44.536-14.94c-19.337-14.432-39.547-27.696-59.47-41.334
		c-4.05-2.772-8.479-4.992-12.91-7.57c-0.621,1.257-0.95,1.822-1.19,2.423c-8.931,22.396-24.297,32.918-48.732,33.364
		c-19.799,0.36-38.186-4.872-55.386-14.374c-3.989-2.203-6.08-1.154-6.875,2.744c-1.127,5.522-2.362,11.136-2.482,16.733
		c-0.529,24.646-0.587,49.302-1.041,73.95c-0.08,4.321,1.508,5.229,5.495,5.2c22.492-0.167,44.987-0.075,67.48-0.092
		c1.622-0.001,3.244-0.158,5.415-0.272C208.313,535.229,208.313,529.973,208.313,524.043z"/>
	<path fill-rule="evenodd" clip-rule="evenodd" fill="#FFFFFF" d="M208.313,524.043c0,5.93,0,11.186,0,16.761
		c-2.171,0.114-3.792,0.271-5.415,0.272c-22.493,0.017-44.988-0.075-67.48,0.092c-3.986,0.029-5.574-0.879-5.495-5.2
		c0.454-24.648,0.512-49.304,1.041-73.95c0.12-5.598,1.355-11.211,2.482-16.733c0.796-3.898,2.887-4.947,6.875-2.744
		c17.201,9.502,35.587,14.734,55.386,14.374c24.436-0.446,39.801-10.968,48.732-33.364c0.24-0.601,0.569-1.166,1.19-2.423
		c4.431,2.578,8.86,4.798,12.91,7.57c19.923,13.638,40.133,26.902,59.47,41.334c13.472,10.055,28.107,14.362,44.536,14.94
		c16.973,0.597,33.917,1.963,50.879,2.896c6.653,0.366,11.797,3.056,15.244,8.864c4.8,8.088,3.698,16.814-4.061,22.113
		c-5.103,3.484-11.095,6.312-17.092,7.737c-39.462,9.38-79.384,15.755-120.098,14.352c-9.476-0.326-18.922-3.114-28.268-5.267
		c-15.039-3.465-29.977-7.364-44.973-11.018C212.596,524.266,210.911,524.298,208.313,524.043z"/>
</g>
</svg>
