<?xml version="1.0" encoding="utf-8"?>
<!-- Generator: Adobe Illustrator 16.2.1, SVG Export Plug-In . SVG Version: 6.00 Build 0)  -->
<!DOCTYPE svg PUBLIC "-//W3C//DTD SVG 1.1//EN" "http://www.w3.org/Graphics/SVG/1.1/DTD/svg11.dtd">
<svg version="1.1" id="Calque_1" xmlns="http://www.w3.org/2000/svg" xmlns:xlink="http://www.w3.org/1999/xlink" x="0px" y="0px"
	 width="560px" height="960px" viewBox="0 0 560 960" enable-background="new 0 0 560 960" xml:space="preserve">
<g>
	<path fill-rule="evenodd" clip-rule="evenodd" d="M486.6,482.141c-0.302,113.054-92.761,205.229-205.418,204.788
		c-114.143-0.447-205.524-92.09-205.198-205.785c0.325-113.521,92.53-205.37,205.691-204.9
		C395.087,276.714,486.901,368.964,486.6,482.141z M202.083,511.959c-7.556,4.676-7.534,11.978-4.314,20.067
		c0.609,1.532,0.753,3.242,1.256,4.824c2.865,9.015,5.386,18.17,8.899,26.926c1.081,2.693,4.765,5.843,7.514,6.107
		c12.587,1.208,25.268,1.422,37.909,2.092c3.961,0.21,5.13-1.288,3.959-5.075c-1.029-3.328-1.966-6.724-2.469-10.159
		c-0.237-1.621,0.101-4.096,1.16-4.917c1.019-0.79,3.503-0.389,4.989,0.279c2.555,1.146,4.924,2.78,7.215,4.428
		c24.382,17.531,21.742,16.622,52.573,15.413c17.02-0.668,33.74-3.794,49.419-10.954c9.102-4.157,17.119-9.705,21.936-18.863
		c5.938-11.289,8.847-23.248,7.992-36.08c-1.285-19.293-13.601-30.469-32.398-29.184c-7.288,0.498-13.315,3.814-18.743,8.512
		c-3.52,3.047-6.964,6.27-10.85,8.784c-7.559,4.893-12.773,4.642-19.458-1.347c-4.557-4.082-8.8-8.693-12.39-13.643
		c-12.737-17.563-23.438-36.312-32.22-56.199c-4.22-9.556-9.042-18.9-14.325-27.911c-3.145-5.362-5.734-5.418-10.635-1.614
		c-5.654,4.388-11.051,9.107-16.562,13.68c-3.962,3.286-8.412,4.076-13.539,3.596c-3.11-0.291-6.625,0.44-9.494,1.738
		c-3.271,1.479-6.143,3.954-8.981,6.253c-6.489,5.257-13.269,6.448-20.814,2.315c-1.831-1.003-4.122-2.081-6.041-1.841
		c-7.17,0.899-13.516,11.342-10.729,18.047c1.546,3.72,4.076,7.33,6.995,10.119c6.615,6.321,13.789,12.053,20.645,18.127
		c3.109,2.756,6.288,5.528,8.854,8.756c1.042,1.312,1.447,4.937,0.586,5.661c-5.284,4.448-6.982,9.01-2.19,14.772
		c0.089,0.107,0.029,0.327,0.069,0.487C199.201,500.392,200.506,505.626,202.083,511.959z"/>
	<path fill-rule="evenodd" clip-rule="evenodd" fill="#FFFFFF" d="M202.083,511.959c-1.578-6.333-2.882-11.567-4.184-16.803
		c-0.04-0.16,0.02-0.38-0.069-0.487c-4.792-5.763-3.094-10.324,2.19-14.772c0.86-0.725,0.456-4.35-0.586-5.661
		c-2.565-3.228-5.744-6-8.854-8.756c-6.855-6.074-14.03-11.806-20.645-18.127c-2.918-2.789-5.448-6.399-6.995-10.119
		c-2.787-6.705,3.559-17.147,10.729-18.047c1.919-0.24,4.21,0.838,6.041,1.841c7.545,4.133,14.325,2.941,20.814-2.315
		c2.838-2.299,5.71-4.773,8.981-6.253c2.869-1.298,6.384-2.029,9.494-1.738c5.127,0.48,9.577-0.31,13.539-3.596
		c5.511-4.572,10.908-9.292,16.562-13.68c4.901-3.804,7.491-3.748,10.635,1.614c5.282,9.011,10.104,18.355,14.325,27.911
		c8.783,19.887,19.483,38.636,32.22,56.199c3.59,4.949,7.833,9.561,12.39,13.643c6.685,5.988,11.899,6.239,19.458,1.347
		c3.886-2.515,7.33-5.737,10.85-8.784c5.428-4.697,11.455-8.014,18.743-8.512c18.798-1.285,31.113,9.891,32.398,29.184
		c0.854,12.832-2.055,24.791-7.992,36.08c-4.816,9.158-12.834,14.706-21.936,18.863c-15.679,7.16-32.399,10.286-49.419,10.954
		c-30.831,1.209-28.19,2.118-52.573-15.413c-2.291-1.647-4.66-3.281-7.215-4.428c-1.486-0.668-3.971-1.069-4.989-0.279
		c-1.059,0.821-1.397,3.296-1.16,4.917c0.503,3.436,1.439,6.831,2.469,10.159c1.171,3.787,0.002,5.285-3.959,5.075
		c-12.641-0.67-25.322-0.884-37.909-2.092c-2.749-0.265-6.433-3.414-7.514-6.107c-3.513-8.756-6.034-17.911-8.899-26.926
		c-0.503-1.582-0.647-3.292-1.256-4.824C194.55,523.937,194.527,516.635,202.083,511.959z"/>
</g>
</svg>
