<?xml version="1.0" encoding="utf-8"?>
<!-- Generator: Adobe Illustrator 16.2.1, SVG Export Plug-In . SVG Version: 6.00 Build 0)  -->
<!DOCTYPE svg PUBLIC "-//W3C//DTD SVG 1.1//EN" "http://www.w3.org/Graphics/SVG/1.1/DTD/svg11.dtd">
<svg version="1.1" id="Calque_1" xmlns="http://www.w3.org/2000/svg" xmlns:xlink="http://www.w3.org/1999/xlink" x="0px" y="0px"
	 width="560px" height="960px" viewBox="0 0 560 960" enable-background="new 0 0 560 960" xml:space="preserve">
<g>
	<path fill-rule="evenodd" clip-rule="evenodd" d="M486.597,481.709c0.29,112.358-91.847,204.697-204.685,205.134
		C168.42,687.281,76.175,595.382,75.983,481.687c-0.191-113.24,91.442-205.362,204.453-205.544
		C394.401,275.959,486.303,367.596,486.597,481.709z M244.072,614.387c0-9.101-0.115-17.583,0.082-26.058
		c0.048-2.087,1.03-5.878,1.725-5.911c2.423-0.115,5.089,0.724,7.314,1.874c1.85,0.955,3.259,2.811,4.777,4.352
		c6.312,6.409,12.247,13.249,19.028,19.112c3.448,2.981,8.378,5.925,12.672,5.976c23.476,0.277,46.97-0.131,70.434-0.972
		c2.618-0.094,6.122-3.979,7.35-6.891c1.427-3.385-2.346-4.887-5.151-6.064c-0.92-0.386-1.872-0.693-2.791-1.082
		c-22.588-9.534-42.451-22.814-58.234-41.864c-5.425-6.548-8.298-13.967-9.045-22.292c-0.55-6.136-1.024-12.284-1.284-18.438
		c-2.032-48.034,1.338-95.926,3.854-143.839c0.407-7.758,0.731-15.519,1.127-23.999c-32.373,2.119-64.131,4.198-96.122,6.292
		c0.249,1.867,0.335,2.845,0.514,3.806c9.08,48.901,18.237,97.788,27.203,146.711c2.035,11.102,3.926,22.319-2.894,32.8
		c-1.307,2.007-1.622,4.692-2.252,7.102c-2.687,10.271-2.157,20.281,3.768,29.312c2.911,4.437,3.959,8.884,3.795,14.064
		c-0.271,8.584-0.074,17.183-0.074,26.01C234.87,614.387,239.131,614.387,244.072,614.387z"/>
	<path fill-rule="evenodd" clip-rule="evenodd" fill="#FFFFFF" d="M244.072,614.387c-4.94,0-9.202,0-14.204,0
		c0-8.827-0.198-17.426,0.074-26.01c0.164-5.181-0.884-9.628-3.795-14.064c-5.925-9.03-6.455-19.041-3.768-29.312
		c0.63-2.409,0.946-5.095,2.252-7.102c6.82-10.48,4.928-21.698,2.894-32.8c-8.966-48.923-18.123-97.81-27.203-146.711
		c-0.178-0.961-0.265-1.938-0.514-3.806c31.991-2.094,63.749-4.173,96.122-6.292c-0.396,8.48-0.72,16.241-1.127,23.999
		c-2.517,47.913-5.887,95.805-3.854,143.839c0.26,6.153,0.734,12.302,1.284,18.438c0.747,8.325,3.62,15.744,9.045,22.292
		c15.783,19.05,35.646,32.33,58.234,41.864c0.919,0.389,1.871,0.696,2.791,1.082c2.806,1.178,6.578,2.68,5.151,6.064
		c-1.228,2.912-4.731,6.797-7.35,6.891c-23.464,0.841-46.958,1.249-70.434,0.972c-4.294-0.051-9.225-2.994-12.672-5.976
		c-6.781-5.863-12.715-12.703-19.028-19.112c-1.518-1.541-2.927-3.396-4.777-4.352c-2.225-1.15-4.891-1.989-7.314-1.874
		c-0.695,0.033-1.677,3.824-1.725,5.911C243.957,596.804,244.072,605.286,244.072,614.387z"/>
</g>
</svg>
