<?xml version="1.0" encoding="UTF-8"?>
<svg width="54px" height="72px" viewBox="0 0 54 72" version="1.1" xmlns="http://www.w3.org/2000/svg" xmlns:xlink="http://www.w3.org/1999/xlink">
    <!-- Generator: Sketch 41.2 (35397) - http://www.bohemiancoding.com/sketch -->
    <title>A4</title>
    <desc>Created with Sketch.</desc>
    <defs></defs>
    <g id="Page-1" stroke="none" stroke-width="1" fill="none" fill-rule="evenodd">
        <g id="A4" fill="#000000">
            <g id="1496325445_delete">
                <g id="layer3" transform="translate(0.000000, 0.000012)">
                    <g id="g4283">
                        <path d="M41.41211,16.39258 C40.0321923,16.4077391 38.9254937,17.5380397 38.939453,18.91797 L38.763672,63.81836 C38.7479107,64.7195716 39.2184429,65.5595077 39.9952079,66.016746 C40.771973,66.4739842 41.7347186,66.477739 42.5150264,66.0265733 C43.2953342,65.5754076 43.7724035,64.7391671 43.763672,63.83786 L43.939453,18.93747 C43.9515652,18.2619319 43.6897603,17.6102491 43.2136644,17.1308421 C42.7375685,16.6514351 42.0877158,16.38512 41.41211,16.39255 L41.41211,16.39258 Z M27.060537,16.39258 C25.6806197,16.4077397 24.5739217,17.5380401 24.587881,18.91797 L24.4121,63.81836 C24.3963387,64.7195716 24.8668709,65.5595077 25.6436359,66.016746 C26.420401,66.4739842 27.3831466,66.477739 28.1634544,66.0265733 C28.9437622,65.5754076 29.4208315,64.7391671 29.4121,63.83786 L29.587881,18.93747 C29.5999932,18.2619317 29.3381882,17.6102488 28.8620921,17.1308417 C28.3859959,16.6514347 27.736143,16.3851197 27.060537,16.39255 L27.060537,16.39258 Z M13.183594,16.39258 C11.8036767,16.4077397 10.6969787,17.5380401 10.710938,18.91797 L10.535157,63.81836 C10.5193957,64.7195716 10.9899279,65.5595077 11.7666929,66.016746 C12.543458,66.4739842 13.5062036,66.477739 14.2865114,66.0265733 C15.0668192,65.5754076 15.5438885,64.7391671 15.535157,63.83786 L15.710938,18.93747 C15.7230502,18.2619317 15.4612452,17.6102488 14.9851491,17.1308417 C14.5090529,16.6514347 13.8592,16.3851197 13.183594,16.39255 L13.183594,16.39258 Z M20.490234,0.92382 L33.509766,0.92382 C34.383423,0.92382 35.087891,1.62828 35.087891,2.50194 L35.087891,5.53319 L52.082031,5.53319 C53.110342,5.53319 53.9375,6.36035 53.9375,7.38866 L53.9375,10.30272 C53.9375,11.33103 53.110342,12.15819 52.082031,12.15819 L1.917969,12.15819 C0.889659,12.15819 0.0625,11.33103 0.0625,10.30272 L0.0625,7.38866 C0.0625,6.36035 0.889659,5.53319 1.917969,5.53319 L18.912109,5.53319 L18.912109,2.50194 C18.912109,1.62828 19.616577,0.92382 20.490234,0.92382 Z M3.488281,14.23241 L50.511719,14.23241 L50.511719,63.12108 C50.511719,67.52812 46.963683,71.07616 42.556641,71.07616 L11.443359,71.07616 C7.036317,71.07616 3.488281,67.52812 3.488281,63.12108 L3.488281,14.23241 Z" id="path4218"></path>
                    </g>
                </g>
            </g>
        </g>
    </g>
</svg>