<svg xmlns="http://www.w3.org/2000/svg" xmlns:xlink="http://www.w3.org/1999/xlink" version="1.1" x="0px" y="0px" viewBox="0 0 500 625" enable-background="new 0 0 500 500" xml:space="preserve"><path d="M73.355,217.251l-2.813,3.355l1.352,1.924l-1.431,3.809l1.347,2.565l-3.087,16.101l-3.012,3.783l-0.05,3.392l-0.069,5.094  l-0.058,4.456c0,0-4.925,3.334-4.725,3.978c0.203,0.632-1.157,6.986-1.157,6.986s-2.798,2.516-2.807,3.362  c-0.013,0.846-0.062,4.244-0.062,4.244c-0.652,1.057,0.676,13.383,1.047,16.576c0.389,3.188,1.697,16.366,10.995,20.104  c9.289,3.737,12.02,5.905,12.216,6.75c0.203,0.854,1.032,2.351,2.088,2.58c1.056,0.216,4.86,1.766,5.506,1.771  c0.635,0.011,3.819,0.054,4.881,0.073c1.054,0.011,1.907,0.021,1.907,0.021s2.314,1.304,1.643,3.621  c-0.656,2.331-2.792,3.156-2.161,3.37c0.63,0.218,2.2,2.58,2.2,2.58l1.792,0.028l2.79-1.874l2.528,1.945l4.027,0.052l1.036,1.71  l3.831,0.059l1.304-3.168l2.193-4.014l-0.069,4.888l2.299,2.373l2.548,0.035l1.116-4.029l3.379,0.898l-0.039,3.188l1.693,0.018  l4.042,0.059l0.035-2.974l1.669,1.939l3.185-0.178l2.144-1.243l4.022,1.114c1.494-0.82-1.174-7.02-1.174-7.02  s3.198-1.438,7.855-0.529c4.662,0.911,8.723-0.524,11.255-0.278c2.548,0.259,5.521,0.929,6.575,1.159  c1.058,0.223,5.083,0.704,6.803-0.974c1.721-1.673,1.369-7.2,3.504-7.604c2.125-0.387,4.66,0.706,7.203,0.957  c2.547,0.241,4.463,0.061,5.095-0.151c0.639-0.196,3.621-0.162,3.621-0.162s7.213-0.105,9.55,0.13  c2.332,0.244,5.974-2.034,10.85-1.967c4.893,0.066,13.81-0.249,15.714,0.209c1.904,0.449,5.929,1.354,7.619,2.01  c1.688,0.663,3.377,1.743,4.198,3.885c0.812,2.125,3.562,2.587,5.689,3.04c2.107,0.449,2.978-1.02,5.529-0.56  c2.54,0.458,5.707,1.35,6.765,1.36c1.071,0.018,3.189,0.046,3.189,0.046l2.06,4.916l10.379,1.619c0,0,1.037,1.933-0.043,3.191  c-1.079,1.261-1.969,4.429-1.969,4.429l3.379,0.9c0,0,3.912-5.896,5.609-5.875c1.694,0.027,2.887,5.987,2.887,5.987l-0.028,2.124  l4.459,0.062l2.441-7.824c0,0,2.563-1.239,4.666-0.153c2.12,1.097,4.566,8.142,4.566,8.142l3.188,0.046l1.999-6.985  c0,0,0.886-2.334,3.189-0.168c2.308,2.15,5.479,3.466,5.479,3.466l2.336,0.036l-3.534-5.998l2.582-2.511l-0.788-3.63  c0,0,3.414-2.075,4.489-3.122s7.08-4.998,9.852-5.808c2.767-0.814,7.478-3.086,9.995-1.141c2.516,1.941,3.714,7.907,4.335,8.764  c0.633,0.862,6.584,0.305,6.584,0.305l2.308,1.721l-2.619,5.281l2.542,0.676l2.798-2.731l-0.037,2.546l4.452,0.695l1.49-0.396  c0,0,3.507-7.813,6.676-6.915c3.168,0.885,4.372,6.847,4.372,6.847l3.181,0.045c0,0,0.553-9.762,3.502-7.81  c2.938,1.948,7.98,5.636,7.98,5.636l3.605,0.685l1.731-1.894l3.403-0.59l-4.18-5.37l1.567-5.287l3.852-2.498l5.702,1.986  l2.772-0.797l6.854-4.366l2.73,2.367l5.104-0.568c0,0,3.867-3.137,5.816-5.868c1.943-2.733,12.277-12.998,13.396-17.869  c1.132-4.869,1.911-16.109-4.312-25.962c-6.244-9.846-15.444-20.382-41.514-23.063c-26.085-2.692-51.279-8.555-58.698-9.502  c-7.419-0.954-16.446-7.652-18.119-10.437c-1.656-2.785,3.284-7.175-0.531-7.225c-3.831-0.054-7.451,0.533-7.451,0.533l-2.086-2.362  l-10.93-8.423c0,0,4.277-1.861,0.695-3.604c-3.591-1.747-7.002-0.941-7.002-0.941l-3.174-0.257l-15.345-11.886  c0,0,6.613-3.094,3.251-5.055c-3.374-1.95-7.856-0.11-7.856-0.11l-5.72-0.926l-14.896-12.724c0,0,5.562-3.537,1.976-4.435  c-3.614-0.898-6.607,1.183-6.607,1.183l-3.798-1.526l-7.367-4.992c0,0-3.357-3.014-6.538-3.059  c-3.187-0.043-5.314-0.078-5.314-0.078s-2.226,7.404-3.962,9.93c-1.723,2.524-12.294,14.697-12.963,17.241  c-0.676,2.535-1.548,4.433-1.548,4.433s-19.316,15.025-28.693,18.515c-9.41,3.48-30.757,12.751-45.532,5.965  c-14.773-6.782-27.832-14.395-31.426-15.93c-3.586-1.533-7.771-5.413-9.278-4.584c-1.494,0.831-8.783,6.048-9.651,7.518  c-0.876,1.475-1.101,3.169-1.101,3.169l0.382,2.552l-0.231,1.483L73.355,217.251z"/><text x="0" y="515" fill="#000000" font-size="5px" font-weight="bold" font-family="'Helvetica Neue', Helvetica, Arial-Unicode, Arial, Sans-serif">Created by Patrick Brentano</text><text x="0" y="520" fill="#000000" font-size="5px" font-weight="bold" font-family="'Helvetica Neue', Helvetica, Arial-Unicode, Arial, Sans-serif">from the Noun Project</text></svg>