<?xml version="1.0" encoding="UTF-8"?>
<svg width="64px" height="55px" viewBox="0 0 64 55" version="1.1" xmlns="http://www.w3.org/2000/svg" xmlns:xlink="http://www.w3.org/1999/xlink">
    <!-- Generator: Sketch 41.2 (35397) - http://www.bohemiancoding.com/sketch -->
    <title>A4</title>
    <desc>Created with Sketch.</desc>
    <defs></defs>
    <g id="Page-1" stroke="none" stroke-width="1" fill="none" fill-rule="evenodd">
        <g id="A4" fill="#000000">
            <path d="M47.1563636,20.3054545 L34.4145455,1.23636364 C33.8618182,0.392727273 32.9309091,0 32,0 C31.0690909,0 30.1381818,0.407272727 29.5854545,1.23636364 L16.8436364,20.3054545 L2.90909091,20.3054545 C1.30909091,20.3054545 0,21.6145455 0,23.2145455 C0,23.4909091 0.0436363636,23.7527273 0.101818182,24 L7.47636364,50.9672727 C8.16,53.4109091 10.4145455,55.2145455 13.0909091,55.2145455 L50.9090909,55.2145455 C53.5854545,55.2145455 55.84,53.4109091 56.5090909,50.9527273 L63.8836364,23.9854545 C63.9563636,23.7527273 64,23.4909091 64,23.2145455 C64,21.6145455 62.6909091,20.3054545 61.0909091,20.3054545 L47.1563636,20.3054545 Z M23.2727273,20.3054545 L32,7.50545455 L40.7272727,20.3054545 L23.2727273,20.3054545 Z M32,43.5781818 C28.7854545,43.5781818 26.1818182,40.9745455 26.1818182,37.76 C26.1818182,34.5454545 28.7854545,31.9418182 32,31.9418182 C35.2145455,31.9418182 37.8181818,34.5454545 37.8181818,37.76 C37.8181818,40.9745455 35.2145455,43.5781818 32,43.5781818 Z" id="Shape"></path>
        </g>
    </g>
</svg>