<?xml version="1.0" encoding="UTF-8"?>
<svg width="70px" height="54px" viewBox="0 0 70 54" version="1.1" xmlns="http://www.w3.org/2000/svg" xmlns:xlink="http://www.w3.org/1999/xlink">
    <!-- Generator: Sketch 41.2 (35397) - http://www.bohemiancoding.com/sketch -->
    <title>A4</title>
    <desc>Created with Sketch.</desc>
    <defs></defs>
    <g id="Page-1" stroke="none" stroke-width="1" fill="none" fill-rule="evenodd">
        <g id="A4" stroke="#000000" stroke-width="3" fill="#000000">
            <path d="M23.5840589,44.0988261 C31.2784008,45.1726722 46.5615087,44.7600343 49.4657349,44.7600343 C51.8855605,44.7600343 53.6350988,44.0046105 55.0280236,42.9268731 C56.4209484,41.8491356 57.1174004,40.3850614 57.1174004,38.5346066 C57.1174004,37.0705104 56.6802115,35.8351978 55.8058208,34.8286317 C54.93143,33.8220656 53.2741794,32.6274217 50.8340191,31.2446642 L47.8143359,29.5670624 C43.7677368,27.2895795 40.9107587,25.108719 39.2433158,23.0244154 C37.575873,20.9401119 36.742164,18.5050718 36.742164,15.7192222 C36.742164,13.2278225 37.3551257,11.0645761 38.5810612,9.22945586 C33.4532586,9.32722294 29.2183068,9.55784833 27.8590084,9.55784833 C23.1006959,9.55784833 19.4303432,11.0676748 16.8478402,14.0873732 C14.2653373,17.1070715 12.9741052,21.3925387 12.9741052,26.9439033 C12.9741052,32.3935945 14.3619255,36.6434766 17.1376078,39.6936769 C18.6608623,41.3675829 20.9824438,42.9823824 23.5840589,44.0988261 Z M61.8877267,4.49592907 C62.5346029,4.62649342 63.1914636,4.76837272 63.8583094,4.92156701 L63.8583094,12.1505056 C60.7986021,11.0048003 58.1633082,10.2388174 55.952396,9.85254961 C55.0925962,9.73909539 54.1907675,9.64318373 53.2588916,9.56261816 C53.1402057,9.55943857 53.0232867,9.55784833 52.9081449,9.55784833 C50.8340087,9.55784833 49.1716745,10.0204551 47.9210923,10.9456825 C46.6705102,11.87091 46.0452285,13.0858882 46.0452285,14.5906537 C46.0452285,15.8310685 46.4824173,16.918957 47.3568081,17.8543517 C48.2311989,18.7897465 49.8782823,19.9386381 52.2981079,21.3010609 L55.5313041,23.1006701 C59.8829232,25.5408303 62.8822419,27.7877775 64.5293501,29.8415791 C66.1764583,31.8953806 67,34.3965074 67,37.3450344 C67,41.5339762 65.4444212,44.8179759 62.3332168,47.1971322 C59.2220125,49.5762884 54.9314617,50.7658487 49.4614358,50.7658487 C46.9883978,50.7658487 37.2930994,50.9509556 29.8684524,50.7439382 C28.7925102,50.7581714 27.6728044,50.7658487 26.4864251,50.7658487 C19.0846056,50.7658487 13.3198135,48.6815764 9.1918757,44.5129693 C5.06393793,40.3443622 3,34.5287341 3,27.0659107 C3,19.4607445 5.0791887,13.6095313 9.23762848,9.51209555 C13.3960683,5.41465978 19.3286189,3.36597262 27.0354584,3.36597262 C31.6772907,3.36597262 53.8965668,2.01804938 61.8877267,4.49592907 Z" id="Combined-Shape"></path>
        </g>
    </g>
</svg>