<?xml version="1.0" encoding="UTF-8"?>
<svg width="64px" height="64px" viewBox="0 0 64 64" version="1.1" xmlns="http://www.w3.org/2000/svg" xmlns:xlink="http://www.w3.org/1999/xlink">
    <!-- Generator: Sketch 41.2 (35397) - http://www.bohemiancoding.com/sketch -->
    <title>A4</title>
    <desc>Created with Sketch.</desc>
    <defs></defs>
    <g id="Page-1" stroke="none" stroke-width="1" fill="none" fill-rule="evenodd">
        <g id="A4" fill="#000000">
            <path d="M47.8732507,50.0570726 C42.7786105,47.8437508 40.9172869,44.4011021 40.3492898,41.4317842 C44.0186041,38.4784663 46.9399222,33.7571575 48.5465805,28.6678507 C50.1985719,26.5625283 51.1599002,24.3665398 51.1599002,22.5078828 C51.1599002,21.2345561 50.697236,20.3132275 49.8865735,19.6305644 C49.6172416,8.82395404 41.9652814,0.146665903 32.5039974,0.0133332639 C32.4293311,0.0119999375 32.3573315,0 32.2839985,0 C32.2546653,0 32.2266655,0.00533330556 32.1973323,0.00533330556 C22.7947146,0.0573330347 15.1534211,8.55195546 14.6974234,19.2172332 C13.5187629,19.9212296 12.8387665,20.9572242 12.8387665,22.5092161 C12.8387665,24.6972047 14.1614262,27.3491909 16.3894146,29.7731783 C17.9720731,34.2091552 20.5467263,38.2798006 23.7227098,41.0237863 C23.2507122,44.0797704 21.4573882,47.742418 16.1267493,50.0584059 C13.2480977,51.3090661 7.98679173,52.4330602 5.71613689,53.5903876 C11.5321066,59.9490211 22.5480492,63.9490003 31.8346675,63.997 L31.9666668,64.001 C31.9773335,63.9983333 31.9893334,63.9996667 32,63.9996667 C41.3519513,63.9996667 52.4332269,59.9863542 58.2838631,53.5890542 C56.0132083,52.4317269 50.750569,51.3077328 47.8732507,50.0570726 Z" id="Shape"></path>
        </g>
    </g>
</svg>