<?xml version="1.0" encoding="utf-8"?>
<!-- Generator: Adobe Illustrator 16.2.1, SVG Export Plug-In . SVG Version: 6.00 Build 0)  -->
<!DOCTYPE svg PUBLIC "-//W3C//DTD SVG 1.1//EN" "http://www.w3.org/Graphics/SVG/1.1/DTD/svg11.dtd">
<svg version="1.1" id="Calque_1" xmlns="http://www.w3.org/2000/svg" xmlns:xlink="http://www.w3.org/1999/xlink" x="0px" y="0px"
	 width="560px" height="960px" viewBox="0 0 560 960" enable-background="new 0 0 560 960" xml:space="preserve">
<g>
	<path fill-rule="evenodd" clip-rule="evenodd" d="M485.43,480.355c0.968,111.113-90.564,203.735-202.2,204.607
		c-113.393,0.885-206.061-89.392-207.059-201.717c-1.015-114.311,89.463-206.52,203.419-207.312
		C393.082,275.146,484.432,365.865,485.43,480.355z M216.12,475.314c0.488-0.163,0.976-0.325,1.463-0.487
		c3.524,4.799,7.271,9.453,10.535,14.423c15.72,23.929,31.418,47.874,46.882,71.968c4.936,7.69,11.439,12.031,20.507,13.344
		c19.481,2.819,38.942,1.868,58.252-0.71c9.847-1.314,18.588-6.625,25.117-14.339c2.891-3.416,5.419-7.848,6.239-12.174
		c2.309-12.171-2.812-21.991-12.438-29.08c-15.911-11.718-33.791-13.44-52.243-7.755c-7.886,2.431-14.537,1.472-20.519-3.548
		c-5.462-4.583-11.196-9.217-15.376-14.887c-13.717-18.61-26.808-37.685-40.09-56.614c-10.223-14.571-19.953-29.512-30.702-43.682
		c-7.174-9.457-13.614-9.026-21.971-0.457c-11.641,11.936-22.05,44.944-11.346,65.984c7.683,15.102,14.209,30.803,20.885,46.394
		c1.584,3.699,2.331,8.018,2.385,12.066c0.239,17.654,0.08,35.314,0.066,52.972c-0.001,1.776,0,3.552,0,5.568
		c4.364,0,8.116,0,12.351,0C216.12,541.08,216.12,508.197,216.12,475.314z"/>
	<path fill-rule="evenodd" clip-rule="evenodd" fill="#FFFFFF" d="M216.12,475.314c0,32.883,0,65.766,0,98.986
		c-4.234,0-7.986,0-12.351,0c0-2.017-0.001-3.792,0-5.568c0.014-17.657,0.172-35.317-0.066-52.972
		c-0.055-4.049-0.801-8.367-2.385-12.066c-6.676-15.591-13.203-31.292-20.885-46.394c-10.704-21.04-0.295-54.049,11.346-65.984
		c8.357-8.569,14.797-9,21.971,0.457c10.749,14.17,20.479,29.11,30.702,43.682c13.282,18.93,26.373,38.004,40.09,56.614
		c4.18,5.67,9.914,10.304,15.376,14.887c5.981,5.02,12.633,5.979,20.519,3.548c18.452-5.686,36.332-3.963,52.243,7.755
		c9.626,7.089,14.746,16.909,12.438,29.08c-0.82,4.326-3.349,8.758-6.239,12.174c-6.529,7.714-15.271,13.024-25.117,14.339
		c-19.31,2.578-38.771,3.529-58.252,0.71c-9.068-1.312-15.571-5.653-20.507-13.344c-15.464-24.094-31.163-48.039-46.882-71.968
		c-3.265-4.97-7.011-9.624-10.535-14.423C217.096,474.989,216.608,475.151,216.12,475.314z"/>
</g>
</svg>
