<svg xmlns="http://www.w3.org/2000/svg" xmlns:xlink="http://www.w3.org/1999/xlink" version="1.1" x="0px" y="0px" viewBox="0 0 500 625" enable-background="new 0 0 500 500" xml:space="preserve"><path d="M87.272,195.184c0,0-5.746,11.488-7.334,14.148c-1.583,2.669-3.219,3.07-5.61,5.683c-2.388,2.63-5.467,9.084-5.164,12.646  c0.31,3.571,2.125,5.762,2.539,7.386c0.392,1.64-4.09,19.959-3.641,27.093c0.442,7.114,1.381,10.715,0.892,10.854  c-0.5,0.129-3.846-2.628-2.361,4.23c1.469,6.854,3.579,12.93,2.9,13.701c-0.682,0.778-1.655,0.729-5.513,6.818  c-3.853,6.1-7.413,6.238-6.776,9.496c0.643,3.26,3.485,13.895,3.485,13.895l2.097,0.109c0,0,1.303-3.486,1.26-2.679  c-0.039,0.799,1.311,2.807,1.311,2.807s1.946-0.066,2.252,0.116c0.318,0.179,0.857,2.629,0.857,2.629l2.555,0.126  c0,0,1.237-2.039,1.376-1.545c0.125,0.487,1.023,1.829,1.842,1.713c0.814-0.12,2.791-0.807,2.741,0.155  c-0.046,0.95,3.443,5.156,3.443,5.156l4.202-3.334l3.188,0.813c0,0,1.597,0.237,1.636-0.569c0.042-0.803,1.042-1.392,1.042-1.392  l1.694,1.689c0,0,2.571,0.133,2.544,0.625c-0.024,0.473-0.082,1.604-0.082,1.604l2.885,0.302l1.88,1.226l1.179,2.001l2.098,0.109  l-0.097,1.927l2.085-2.8l2.718,0.462l-0.128,2.578l1.683,1.701l1.566,0.888l3.955-4.807c0,0,2.26,0.112,2.733,0.303  c0.477,0.181,1.694,1.38,1.694,1.38l2.513-1.812l1.551,1.37l1.07-2.044l0.904,1.333l2.198,4.315l1.899,3.808l3.603-0.791l0.337-6.6  l2.884,0.152l0.671,2.78l2.799-1.157l1.667,2.024l1.252-5.582l1.83,2.027l2.683-1.799l1.427-2.667l7.114-0.28l0.923,4.075  l2.908-0.171l1.912-2.643c0,0,6.009-4.052,11.867-8.279c5.866-4.213,2.237-8.757,11.189-7.176c8.949,1.59,23.457,2.01,25.13,3.866  c1.679,1.864,4.66,3.628,4.66,3.628l1.233-2.039l3.334,4.21l1.834,2.028l1.702-1.849l3.586,2.438c0,0-0.794,3.031-0.155,3.062  c0.648,0.035,2.982,1.759,2.982,1.759l2.814-1.461l2.668,7.711l3.082-0.166l-0.772,2.385l3.357,0.654l2.718-2.767l0.728,1.491  l2.326-1.337l-0.216,4.183l3.791,1.64l2.811-4.365l3.676,0.675c0.915,1.017,4.39-0.589,4.39-0.589l1.062-1.877l1.311,2.648  l1.589,0.562l-0.146,2.901l3.726,2.767l3.888-0.124l-0.639-6.648l2.136,2.532l1.688-1.532l1.464,2.978l2.54-5.518l6.827-0.937  c0,0,0.237,1.628,0.729,1.487c0.492-0.139,2.128-0.693,2.128-0.693l1.073-2.047l5.844-0.672l0.705,2.125l2.474-1.158l1.384,1.356  l4.575,2.016l2.556,3.679l5.761,0.938l1.752-2.651l1.214,1.354l2.21-2.145c0,0,1.585,0.562,1.399,1.035  c-0.178,0.478-0.147,3.056-0.147,3.056l4.815,0.411l0.178-3.548l3.145,1.612l2.776-0.663l2.841-5.172l1.998,2.032l-0.093,1.775  l2.598-0.359l0.867,1.979l6.436,0.66l-0.768-4.238l2.215,0.919l1.813-0.713l-0.081,1.604l5.33-6.343l5.092-1.996l5.547-7.459  l8.298,5.09l0.751,4.246l2.702,0.778l7.409,0.221l2.745-0.026l1.504-4.117l1.124-0.105l0.811-3.187l1.83,2.195  c0,0,2.331,1.725,2.688,1.097c0.352-0.621,2.474-0.989,2.474-0.989l1.074-2.047l2.573,0.131l1.59,3.626l2.089,0.107l1.312-3.644  l1.769,0.09l3.415-0.314c0.93,0.698,2.633-4.381,2.633-4.381l2.074-2.633c0,0,5.214-4.09,5.796-6.161  c0.589-2.073,1.701-1.689,1.701-1.689l1.982,2.205l2.205-1.992l1.547,1.215c0,0,2.175,1.721,2.528,1.101  c0.353-0.636,3.496-2.094,3.496-2.094l0.779-2.699l3.253-0.48c0.946,0.532,3.715-3.194,3.715-3.194s4.771-5.087,5.765-8.747  c0.996-3.655,0.442-11.91-0.458-16.318c-0.903-4.4-1.833-8.322-4.272-11.021c-2.446-2.706-4.513-3.206-5.439-4.106  c-0.923-0.898-4.113-7.998-10.552-8.327c-6.44-0.33-35.006-0.012-42.783-2.663c-7.762-2.664-15.523-5.633-18.218-6.579  c-2.69-0.947-19.148-4.04-21.99-8.538c-2.838-4.501-0.613-6.968-4.642-7.172c-4.009-0.206-7.207,2.208-10.312-0.206  c-3.102-2.424-16.357-11.324-21.525-14.492c-5.155-3.167-18.189-10.285-20.104-10.705c-1.916-0.426-21.46-12.708-25.175-15.648  c-3.725-2.93-17.003-11.673-18.88-12.576c-1.892-0.903-18.493-14.008-21.513-14.969c-3.013-0.962-6.854-1.635-11.162,0.554  c-4.296,2.207-17.141,7.195-19.334,9.022c-2.186,1.825-4.603,4.927-4.241,10.596c0.356,5.656,0.71,11.329,0.186,12.104  c-0.527,0.787-21.257,11.832-34.812,11.944c-13.569,0.118-26.506,0.746-31.791-6.295c-5.28-7.048-4.175-13.123-6.583-16.473  c-2.416-3.351-4.296-7.476-11.953-6.091c-7.657,1.379-11.173,7.338-12.058,8.738C88.723,192.204,87.272,195.184,87.272,195.184z"/><text x="0" y="515" fill="#000000" font-size="5px" font-weight="bold" font-family="'Helvetica Neue', Helvetica, Arial-Unicode, Arial, Sans-serif">Created by Patrick Brentano</text><text x="0" y="520" fill="#000000" font-size="5px" font-weight="bold" font-family="'Helvetica Neue', Helvetica, Arial-Unicode, Arial, Sans-serif">from the Noun Project</text></svg>