<?xml version="1.0" encoding="utf-8"?>
<!-- Generator: Adobe Illustrator 16.2.1, SVG Export Plug-In . SVG Version: 6.00 Build 0)  -->
<!DOCTYPE svg PUBLIC "-//W3C//DTD SVG 1.1//EN" "http://www.w3.org/Graphics/SVG/1.1/DTD/svg11.dtd">
<svg version="1.1" id="Calque_1" xmlns="http://www.w3.org/2000/svg" xmlns:xlink="http://www.w3.org/1999/xlink" x="0px" y="0px"
	 width="560px" height="960px" viewBox="0 0 560 960" enable-background="new 0 0 560 960" xml:space="preserve">
<g>
	<path fill-rule="evenodd" clip-rule="evenodd" d="M281.169,276.772c113.19-0.324,204.4,90.933,204.791,204.896
		c0.383,111.79-91.639,204.116-203.548,204.221c-113.799,0.106-205.111-90.646-205.485-204.224
		C76.554,368.574,167.741,277.096,281.169,276.772z M152.42,450.204c2.532,2.853,4.875,5.227,6.916,7.838
		c6.964,8.912,14.199,17.646,20.593,26.955c4.727,6.881,3.044,9.854-5.156,11.7c-0.648,0.146-1.316,0.256-1.978,0.277
		c-10.14,0.332-20.279,0.781-30.421,0.883c-3.173,0.031-4.624,0.854-4.515,4.168c0.147,4.493-0.196,9.012,0.12,13.488
		c0.754,10.685,10.983,20.21,21.526,20.178c19.662-0.06,39.326-0.417,58.984-0.205c8.67,0.094,16.411-1.221,24.104-5.885
		c15.096-9.151,30.881-10.66,46.738-1.049c3.536,2.144,7.384,3.938,11.304,5.246c6.122,2.044,12.398,4.87,18.662,5.009
		c17.956,0.398,35.983,0.28,53.898-0.911c15.118-1.005,29.409-5.783,41.435-15.579c3.449-2.809,6.507-6.196,9.312-9.667
		c2.235-2.765,1.088-4.898-2.49-4.713c-3.963,0.206-7.917,0.862-11.838,1.535c-10.149,1.74-20.228,4.021-30.435,5.263
		c-6.924,0.842-8.632-0.661-11.186-7.369c-4.965-13.048-7.445-26.638-6.922-40.572c0.177-4.696-1.562-6.362-5.589-6.893
		c-6.27-0.824-12.606-1.302-18.797-2.526c-5.276-1.044-9.591,0.269-13.342,3.73c-4.772,4.403-9.214,9.171-14.068,13.477
		c-7.832,6.946-15.534,14.12-23.943,20.312c-8.374,6.166-18.233,8.789-28.771,8.012c-7.724-0.57-11.979-5.929-9.921-13.339
		c1.077-3.88,3.01-7.854,5.58-10.93c11.214-13.423,22.808-26.529,34.253-39.759c1.236-1.43,2.41-2.913,3.968-4.8
		c-8.956-3.352-17.268-6.26-25.397-9.609c-2.992-1.232-4.632-0.704-6.828,1.537c-10.219,10.429-21.904,18.9-35.05,25.333
		c-5.315,2.601-10.403,2.947-15.558-0.48c-6.928-4.607-14.035-8.946-20.949-13.574c-5.204-3.483-10.225-7.239-15.425-10.943
		c-0.859,0.933-1.456,1.495-1.954,2.136C163.767,435.564,158.268,442.664,152.42,450.204z"/>
	<path fill-rule="evenodd" clip-rule="evenodd" fill="#FFFFFF" d="M152.42,450.204c5.847-7.54,11.346-14.64,16.861-21.728
		c0.498-0.641,1.095-1.203,1.954-2.136c5.2,3.704,10.222,7.46,15.425,10.943c6.914,4.628,14.021,8.967,20.949,13.574
		c5.155,3.428,10.243,3.081,15.558,0.48c13.146-6.433,24.831-14.904,35.05-25.333c2.196-2.241,3.836-2.77,6.828-1.537
		c8.129,3.35,16.441,6.258,25.397,9.609c-1.558,1.887-2.731,3.37-3.968,4.8c-11.446,13.229-23.039,26.336-34.253,39.759
		c-2.57,3.076-4.502,7.05-5.58,10.93c-2.058,7.41,2.197,12.769,9.921,13.339c10.538,0.777,20.397-1.846,28.771-8.012
		c8.409-6.191,16.111-13.365,23.943-20.312c4.854-4.306,9.296-9.073,14.068-13.477c3.751-3.462,8.065-4.774,13.342-3.73
		c6.19,1.225,12.527,1.702,18.797,2.526c4.027,0.53,5.766,2.196,5.589,6.893c-0.523,13.935,1.957,27.524,6.922,40.572
		c2.554,6.708,4.262,8.211,11.186,7.369c10.207-1.242,20.285-3.522,30.435-5.263c3.921-0.673,7.875-1.329,11.838-1.535
		c3.578-0.186,4.726,1.948,2.49,4.713c-2.806,3.471-5.863,6.858-9.312,9.667c-12.025,9.796-26.316,14.574-41.435,15.579
		c-17.915,1.191-35.942,1.31-53.898,0.911c-6.264-0.139-12.54-2.965-18.662-5.009c-3.92-1.309-7.768-3.103-11.304-5.246
		c-15.857-9.611-31.643-8.103-46.738,1.049c-7.694,4.664-15.435,5.979-24.104,5.885c-19.658-0.212-39.322,0.146-58.984,0.205
		c-10.543,0.032-20.772-9.493-21.526-20.178c-0.316-4.477,0.028-8.995-0.12-13.488c-0.109-3.314,1.342-4.137,4.515-4.168
		c10.143-0.102,20.282-0.551,30.421-0.883c0.662-0.021,1.33-0.131,1.978-0.277c8.2-1.847,9.883-4.819,5.156-11.7
		c-6.395-9.309-13.629-18.043-20.593-26.955C157.296,455.431,154.953,453.057,152.42,450.204z M334.887,517.287
		c3.602,0,6.442,0.279,9.179-0.136c1.119-0.17,2.789-1.78,2.871-2.839c0.33-4.248,0.137-8.535,0.137-12.727
		c-5.868-0.692-5.887-0.699-7.57,3.617C338.064,508.894,336.674,512.604,334.887,517.287z M302.906,508.513
		c12.669-0.44,13.569-1.154,15.608-11.96C309.203,494.786,306.437,501.66,302.906,508.513z"/>
	<path fill-rule="evenodd" clip-rule="evenodd" d="M334.887,517.287c1.787-4.684,3.178-8.394,4.616-12.084
		c1.684-4.316,1.702-4.31,7.57-3.617c0,4.191,0.193,8.479-0.137,12.727c-0.082,1.059-1.752,2.669-2.871,2.839
		C341.329,517.566,338.488,517.287,334.887,517.287z"/>
	<path fill-rule="evenodd" clip-rule="evenodd" d="M302.906,508.513c3.53-6.853,6.297-13.727,15.611-11.957
		C316.476,507.358,315.575,508.072,302.906,508.513z"/>
</g>
</svg>
