<?xml version="1.0" encoding="utf-8"?>
<!-- Generator: Adobe Illustrator 16.2.1, SVG Export Plug-In . SVG Version: 6.00 Build 0)  -->
<!DOCTYPE svg PUBLIC "-//W3C//DTD SVG 1.1//EN" "http://www.w3.org/Graphics/SVG/1.1/DTD/svg11.dtd">
<svg version="1.1" id="Calque_1" xmlns="http://www.w3.org/2000/svg" xmlns:xlink="http://www.w3.org/1999/xlink" x="0px" y="0px"
	 width="560px" height="960px" viewBox="0 0 560 960" enable-background="new 0 0 560 960" xml:space="preserve">
<g>
	<path fill-rule="evenodd" clip-rule="evenodd" d="M280.227,685.248c-114.372-0.867-205.4-92.568-204.341-205.853
		c1.066-114.015,92.886-204.214,206.924-203.271c112.904,0.932,203.131,93.604,202.128,207.606
		C483.959,594.905,391.329,686.09,280.227,685.248z M186.353,387.911c-0.37,0.554-0.74,1.107-1.109,1.661
		c1.769,1.898,3.244,4.254,5.359,5.615c8.393,5.402,17.037,10.412,25.484,15.732c5.062,3.188,10.134,6.43,14.775,10.175
		c1.608,1.298,3.143,4.534,2.638,6.287c-2.324,8.058-6.792,15.072-14.547,18.751c-2.868,1.36-7.3,1.281-10.318,0.087
		c-6.775-2.682-12.998-6.724-19.653-9.754c-10.422-4.745-20.857-9.551-31.598-13.479c-6.835-2.5-8.296-0.603-6.181,6.201
		c13.735,44.171,22.187,89.391,26.562,135.383c0.644,6.774,5.178,3.833,8.356,4.452c3.87,0.755,4.771-1.385,4.859-4.836
		c0.239-9.323,0.414-18.668,1.218-27.952c1.766-20.384,3.812-40.745,5.98-61.09c0.367-3.445,1.912-6.764,3.266-11.333
		c4.003,3.413,7.119,5.617,9.691,8.335c20.471,21.631,38.878,44.979,52.256,71.589c9.075,18.052,23.449,26.051,42.162,28.354
		c22.523,2.771,44.958,1.134,67.007-3.771c10.771-2.396,21.226-6.419,31.587-10.331c3.842-1.45,7.965-5.229,6.341-9.515
		c-1.107-2.924-5.637-5.228-9.111-6.402c-4.124-1.395-8.759-1.28-13.69-1.884c1.293-16.61-9.531-24.836-22.058-31.967
		c-7.954-4.528-15.566-9.682-23.653-13.945c-10.255-5.406-15.949-12.778-16.189-25.058c-0.227-11.62-5.428-20.653-17.483-25.361
		c-10.646-4.157-20.486-10.338-30.865-15.235c-27.069-12.771-54.218-25.376-81.398-37.909
		C193.021,389.319,189.592,388.823,186.353,387.911z"/>
	<path fill-rule="evenodd" clip-rule="evenodd" fill="#FFFFFF" d="M186.353,387.911c3.239,0.912,6.668,1.408,9.686,2.8
		c27.181,12.533,54.33,25.138,81.398,37.909c10.379,4.897,20.219,11.078,30.865,15.235c12.056,4.708,17.257,13.741,17.483,25.361
		c0.24,12.279,5.935,19.651,16.189,25.058c8.087,4.264,15.699,9.417,23.653,13.945c12.526,7.131,23.351,15.356,22.058,31.967
		c4.932,0.604,9.566,0.489,13.69,1.884c3.475,1.175,8.004,3.479,9.111,6.402c1.624,4.286-2.499,8.064-6.341,9.515
		c-10.361,3.912-20.816,7.935-31.587,10.331c-22.049,4.905-44.483,6.543-67.007,3.771c-18.713-2.303-33.087-10.302-42.162-28.354
		c-13.378-26.61-31.785-49.958-52.256-71.589c-2.572-2.718-5.688-4.922-9.691-8.335c-1.354,4.569-2.899,7.888-3.266,11.333
		c-2.168,20.345-4.214,40.706-5.98,61.09c-0.804,9.284-0.979,18.629-1.218,27.952c-0.088,3.451-0.989,5.591-4.859,4.836
		c-3.178-0.619-7.712,2.322-8.356-4.452c-4.375-45.992-12.827-91.212-26.562-135.383c-2.116-6.804-0.655-8.701,6.181-6.201
		c10.741,3.928,21.176,8.733,31.598,13.479c6.656,3.03,12.878,7.072,19.653,9.754c3.018,1.194,7.45,1.273,10.318-0.087
		c7.756-3.679,12.224-10.693,14.547-18.751c0.505-1.753-1.03-4.989-2.638-6.287c-4.642-3.745-9.713-6.987-14.775-10.175
		c-8.447-5.32-17.092-10.33-25.484-15.732c-2.115-1.361-3.59-3.717-5.359-5.615C185.613,389.019,185.983,388.465,186.353,387.911z
		 M315.652,477.839c0.297-0.632,0.594-1.263,0.891-1.895c-2.162-2.1-4.021-4.697-6.533-6.219
		c-19.771-11.978-39.644-23.792-59.592-35.474c-1.097-0.643-3.879-0.259-4.629,0.663c-4.806,5.903-9.385,12.005-13.777,18.226
		c-1.96,2.775-1.197,5.611,1.033,8.199c5.107,5.929,9.981,12.061,15.152,17.931c8.422,9.563,8.614,9.762,20.129,4.266
		c10.305-4.918,20.641-7.954,32.261-5.845C305.456,478.576,310.621,477.839,315.652,477.839z M318.418,495.061
		c-0.128-0.342-0.255-0.684-0.383-1.025c-1.967,0.189-3.959,0.24-5.896,0.59c-13.248,2.394-26.465,4.961-39.732,7.232
		c-5.778,0.99-6.95,3.053-3.951,8.062c2.229,3.723,5.178,5.691,9.539,3.804c12.489-5.406,24.954-10.867,37.396-16.378
		C316.517,496.848,317.415,495.835,318.418,495.061z M291,532.162c2.022,1.557,2.515,2.266,3.034,2.286
		c8.938,0.357,17.892,0.888,26.81,0.558c0.979-0.037,2.305-5.077,2.488-7.862c0.156-2.351-0.718-5.213-4.436-4.393
		c-5.342,1.178-10.79,2.021-15.986,3.662C299.112,527.612,295.647,529.867,291,532.162z M286.325,518.212
		c14.202,2.37,26.011-4.494,38.298-9.555C310.85,507.789,298.515,512.67,286.325,518.212z M341.19,536.861
		c4.65,0.045,6.562-1.894,6.562-6.653c0-5.965-3.092-11.364-6.564-10.735c-5.58,1.012-4.935,5.89-5.051,9.894
		C336.035,532.881,335.328,537.199,341.19,536.861z M359.899,518.435c-1.605,6.724-0.546,12.364,1.593,17.641
		c0.486,1.198,4.028,1.584,6.128,1.495c0.865-0.036,2.474-2.435,2.312-3.55C369.024,527.784,366.109,522.656,359.899,518.435z"/>
	<path fill-rule="evenodd" clip-rule="evenodd" d="M315.652,477.839c-5.031,0-10.196,0.737-15.067-0.147
		c-11.62-2.109-21.956,0.927-32.261,5.845c-11.515,5.496-11.707,5.298-20.129-4.266c-5.17-5.87-10.044-12.002-15.152-17.931
		c-2.229-2.588-2.993-5.424-1.033-8.199c4.392-6.221,8.972-12.322,13.777-18.226c0.75-0.922,3.533-1.306,4.629-0.663
		c19.948,11.682,39.821,23.496,59.592,35.474c2.512,1.521,4.371,4.119,6.533,6.219C316.246,476.576,315.949,477.207,315.652,477.839
		z"/>
	<path fill-rule="evenodd" clip-rule="evenodd" d="M318.418,495.061c-1.003,0.774-1.901,1.787-3.026,2.285
		c-12.442,5.511-24.907,10.972-37.396,16.378c-4.361,1.888-7.31-0.081-9.539-3.804c-2.999-5.01-1.828-7.072,3.951-8.062
		c13.267-2.271,26.484-4.839,39.732-7.232c1.938-0.35,3.93-0.4,5.896-0.59C318.163,494.377,318.29,494.719,318.418,495.061z"/>
	<path fill-rule="evenodd" clip-rule="evenodd" d="M291,532.162c4.647-2.295,8.112-4.55,11.91-5.749
		c5.196-1.642,10.645-2.484,15.986-3.662c3.718-0.82,4.592,2.042,4.436,4.393c-0.184,2.785-1.509,7.825-2.488,7.862
		c-8.918,0.33-17.871-0.2-26.81-0.558C293.515,534.428,293.022,533.719,291,532.162z"/>
	<path fill-rule="evenodd" clip-rule="evenodd" d="M286.325,518.212c12.189-5.542,24.524-10.423,38.298-9.555
		C312.336,513.718,300.527,520.582,286.325,518.212z"/>
	<path fill-rule="evenodd" clip-rule="evenodd" d="M341.191,536.86c-5.863,0.339-5.156-3.979-5.054-7.494
		c0.116-4.004-0.529-8.882,5.051-9.894c3.473-0.629,6.564,4.771,6.564,10.735C347.753,534.968,345.841,536.906,341.191,536.86z"/>
	<path fill-rule="evenodd" clip-rule="evenodd" d="M359.899,518.435c6.21,4.222,9.125,9.35,10.032,15.586
		c0.162,1.115-1.446,3.514-2.312,3.55c-2.1,0.089-5.642-0.297-6.128-1.495C359.354,530.799,358.294,525.158,359.899,518.435z"/>
</g>
</svg>
