<?xml version="1.0" encoding="UTF-8"?>
<svg width="64px" height="64px" viewBox="0 0 64 64" version="1.1" xmlns="http://www.w3.org/2000/svg" xmlns:xlink="http://www.w3.org/1999/xlink">
    <!-- Generator: Sketch 41.2 (35397) - http://www.bohemiancoding.com/sketch -->
    <title>A4</title>
    <desc>Created with Sketch.</desc>
    <defs></defs>
    <g id="Page-1" stroke="none" stroke-width="1" fill="none" fill-rule="evenodd">
        <g id="A4" fill="#000000">
            <path d="M61.9888043,0.00153752799 L61.8729131,0.00153752799 C61.8383187,0.00153752799 61.8089135,-0.00192190999 61.7743191,0.00153752799 L34.9532965,0.00153752799 C34.3011924,0.0309427508 32.8153638,1.05147695 32.623365,1.24347576 L1.24799225,32.6292268 C-0.415997417,34.2932165 -0.415997417,36.9915781 1.24799225,38.6555678 L25.3360589,62.7540127 C26.1732429,63.5860076 27.2612361,63.9994104 28.3492294,63.9994104 C29.4372226,63.9994104 30.5286753,63.5860076 31.3606701,62.7540127 L62.7343131,31.3682617 C62.926312,31.1762629 63.997008,29.858217 63.997008,29.0383302 L63.997008,2.11871357 C64.0575482,0.928666906 63.1563646,0.00153752799 61.9888043,0.00153752799 Z M55.3518725,12.1078407 C53.4422627,12.1078407 51.8924345,10.5580125 51.8924345,8.64840275 C51.8924345,6.73879299 53.4422627,5.18896478 55.3518725,5.18896478 C57.2614823,5.18896478 58.8113105,6.73879299 58.8113105,8.64840275 C58.8113105,10.5580125 57.2614823,12.1078407 55.3518725,12.1078407 Z" id="Shape"></path>
        </g>
    </g>
</svg>