<?xml version="1.0" encoding="utf-8"?>
<!-- Generator: Adobe Illustrator 16.2.1, SVG Export Plug-In . SVG Version: 6.00 Build 0)  -->
<!DOCTYPE svg PUBLIC "-//W3C//DTD SVG 1.1//EN" "http://www.w3.org/Graphics/SVG/1.1/DTD/svg11.dtd">
<svg version="1.1" id="Calque_1" xmlns="http://www.w3.org/2000/svg" xmlns:xlink="http://www.w3.org/1999/xlink" x="0px" y="0px"
	 width="560px" height="960px" viewBox="0 0 560 960" enable-background="new 0 0 560 960" xml:space="preserve">
<g>
	<path fill-rule="evenodd" clip-rule="evenodd" d="M178.926,480.986c0.204-56.966,45.81-102.213,102.884-102.074
		c56.713,0.139,102.296,46.136,102.074,103.002c-0.221,56.545-46.51,102.257-103.251,101.965
		C224.207,583.588,178.725,537.576,178.926,480.986z M215.078,505.442c1.33,0.493,1.64,0.708,1.952,0.71
		c37.154,0.25,74.31,0.664,111.462,0.52c5.413-0.021,11.182-1.957,16.133-4.356c6.547-3.173,7.643-9.348,3.977-15.674
		c-4.27-7.367-12.916-10.772-23.67-8.576c-4.342,0.887-7.664-0.248-11.285-2.206c-5.553-3.001-11.29-5.672-17.025-8.317
		c-4.596-2.118-9.314-3.966-13.958-5.98c-2.878-1.249-5.616-2.945-8.6-3.801c-4.88-1.398-9.293-1.401-13.816,2.479
		c-11.493,9.861-18.368,9.276-28.965-1.269c-0.59-0.587-1.108-1.271-1.774-1.754c-3.252-2.354-7.095-2.763-9.411,0.433
		c-3.24,4.47-7.491,9.65-7.633,14.632C212.146,483.459,214.096,494.702,215.078,505.442z"/>
	<path fill-rule="evenodd" clip-rule="evenodd" fill="#FFFFFF" d="M215.078,505.442c-0.982-10.74-2.932-21.983-2.614-33.161
		c0.142-4.981,4.393-10.162,7.633-14.632c2.315-3.195,6.159-2.786,9.411-0.433c0.666,0.482,1.184,1.167,1.774,1.754
		c10.597,10.545,17.472,11.13,28.965,1.269c4.523-3.88,8.936-3.877,13.816-2.479c2.984,0.855,5.722,2.552,8.6,3.801
		c4.644,2.015,9.362,3.862,13.958,5.98c5.735,2.646,11.473,5.316,17.025,8.317c3.621,1.958,6.943,3.093,11.285,2.206
		c10.754-2.196,19.4,1.209,23.67,8.576c3.666,6.326,2.57,12.501-3.977,15.674c-4.951,2.399-10.72,4.335-16.133,4.356
		c-37.152,0.145-74.308-0.27-111.462-0.52C216.718,506.15,216.408,505.936,215.078,505.442z"/>
</g>
</svg>
