<svg xmlns="http://www.w3.org/2000/svg" xmlns:xlink="http://www.w3.org/1999/xlink" version="1.1" x="0px" y="0px" viewBox="0 0 500 625" enable-background="new 0 0 500 500" xml:space="preserve"><path d="M83.903,208.512c-1.333,8.036-6.578,30.961-7.961,37.794c-1.373,6.832-2.607,30.429-2.069,34.41  c0.53,3.973,2.882,5.898,0.233,8.77c-2.656,2.879-2.562,5.684-2.09,8.057c0.488,2.381-4.205,5.734-4.853,10.143  c-0.663,4.414-3.203,12.084,3.408,19.059c6.613,6.969,69.444,10.92,70.616,10.48c1.192-0.436,0.469-2.609,0.469-2.609l2.509-0.293  l2.496,2.746l34.751-0.609c0,0-0.204-3.025-0.092-2.924c0.103,0.102,2.304,0.135,2.304,0.135l1.557,2.666l27.931-0.908  c0,0,0.436-2.734,0.96-2.637c0.528,0.08,0.947,0.062,1.264,0.164c0.32,0.088,1.647,2.348,1.647,2.348l32.611,1.248l-0.166-5.125  l2.41,0.027c0,0,0.61,2.697,0.623,3.123c0.013,0.424,0.049,1.459,0.484,1.867c0.426,0.412,1.249-0.039,1.249-0.039  s63.654,1.742,75.86,0.549c12.203-1.191,52.136-1.162,57.934-2.951c5.8-1.779,5.907-6.576,5.907-6.576s5.542-1.508,7.391-2.105  c0,0,5.888,0,6.571-1.041c0.677-1.049,2.725-1.42,3.234-1.439c0.511-0.014,3.62,0.703,3.693-0.014  c0.079-0.723,2.972-3.494,2.972-3.494l3.803,0.191c0,0,2.605-2.041,2.896-2.252c0.309-0.215,5.383-1.92,5.689-1.926  c0.313-0.012,5.835-3.682,5.835-3.682l5.431-0.385l1.801-1.387l-0.092-2.67l2.756-0.703l1.74-3.242l-0.122-3.898l0.971-1.468  c0,0-0.438-4.192-0.155-4.716c0.298-0.518-0.735-13.832-3.004-15.96c-2.257-2.115-5.058-2.026-5.058-2.026s-1.199-6.375-8.902-9.707  c-7.688-3.329-37.353-0.773-47.581-2.235c-10.239-1.469-36.797-7.988-36.843-9.382c-0.042-1.397,2.895-3.291,1.079-3.63  c-1.811-0.34-4.829-1.048-7.652-2.148c-2.834-1.107-15.254-8.485-16.7-9.844c-1.436-1.352-7.581-6.141-12.623-7.577  c-5.036-1.425-10.684-3.238-13.145-5.159c-2.452-1.916-6.385-6.186-9.797-6.669c-3.41-0.491-11.019-1.046-11.019-1.046  s-3.707-3.668-4.779-6.026c-1.076-2.362-3.188-5.888-5.799-6.2c-2.605-0.325-2.89-2.905-2.89-2.905s3.688-3.113,0.287-3.599  c-3.413-0.491-10.045,0.327-10.045,0.327s-7.753-13.332-8.85-16.49c-1.106-3.157-16.812-19.816-20.305-22.699  c-3.484-2.882-15.249-8.68-20.181-6.73c-4.926,1.956-8.46,3.872-10.766,12.726c-2.314,8.862-3.031,23.455-2.161,25.629  c0.866,2.174,1.107,3.557,1.107,3.557s-11.456,9.753-15.733,13.493c-4.27,3.731-13.948,13.027-15.134,13.463  c-1.183,0.44-19.2-0.973-25.078-9.766c-5.875-8.795-17.112-16.811-25.318-17.347c-8.194-0.533-12.424-1.599-16.534,1.134  C90.785,199.106,83.903,208.512,83.903,208.512z"/><text x="0" y="515" fill="#000000" font-size="5px" font-weight="bold" font-family="'Helvetica Neue', Helvetica, Arial-Unicode, Arial, Sans-serif">Created by Patrick Brentano</text><text x="0" y="520" fill="#000000" font-size="5px" font-weight="bold" font-family="'Helvetica Neue', Helvetica, Arial-Unicode, Arial, Sans-serif">from the Noun Project</text></svg>